# xmcd CD database file
#
# Track frame offsets:
#	150
#	21236
#	48499
#	89993
#	143667
#	162232
#	194085
#	217628
#	238800
#	259382
#	269242
#	306633
#
# Disc length: 4669 seconds
#
# Revision: 0
# Processed by: cddbd v1.5.1PL2 Copyright (c) Steve Scherf et al.
# Submitted via: CDex 1.50
#
DISCID=c2123b0c
DTITLE=Buddy Rich - Argo, Emarcy and Verve Small Group Sess Disc 2
DYEAR=2006
DGENRE=Jazz
TTITLE0=Sonny And Sweets
TTITLE1=The Two Mothers
TTITLE2=A Smooth One
TTITLE3=Broadway
TTITLE4=Nice Work If You Can Get It
TTITLE5=Willow Weep For Me
TTITLE6=You're Getting To Be A Habit With Me
TTITLE7=Now's The Time
TTITLE8=The Yellow Rose Of Broadway
TTITLE9=All Sweets
TTITLE10=Easy Does It
TTITLE11=Barney's Bugle
EXTD=YEAR: 2006
EXTT0=
EXTT1=
EXTT2=
EXTT3=
EXTT4=
EXTT5=
EXTT6=
EXTT7=
EXTT8=
EXTT9=
EXTT10=
EXTT11=
PLAYORDER=
